<!-- <svg xmlns="http://www.w3.org/2000/svg" viewBox="0 0 841.9 595.3"><g fill="#61DAFB"><path d="M666.3 296.5c0-32.5-40.7-63.3-103.1-82.4 14.4-63.6 8-114.2-20.2-130.4-6.5-3.8-14.1-5.6-22.4-5.6v22.3c4.6 0 8.3.9 11.4 2.6 13.6 7.8 19.5 37.5 14.9 75.7-1.1 9.4-2.9 19.3-5.1 29.4-19.6-4.8-41-8.5-63.5-10.9-13.5-18.5-27.5-35.3-41.6-50 32.6-30.3 63.2-46.9 84-46.9V78c-27.5 0-63.5 19.6-99.9 53.6-36.4-33.8-72.4-53.2-99.9-53.2v22.3c20.7 0 51.4 16.5 84 46.6-14 14.7-28 31.4-41.3 49.9-22.6 2.4-44 6.1-63.6 11-2.3-10-4-19.7-5.2-29-4.7-38.2 1.1-67.9 14.6-75.8 3-1.8 6.9-2.6 11.5-2.6V78.5c-8.4 0-16 1.8-22.6 5.6-28.1 16.2-34.4 66.7-19.9 130.1-62.2 19.2-102.7 49.9-102.7 82.3 0 32.5 40.7 63.3 103.1 82.4-14.4 63.6-8 114.2 20.2 130.4 6.5 3.8 14.1 5.6 22.5 5.6 27.5 0 63.5-19.6 99.9-53.6 36.4 33.8 72.4 53.2 99.9 53.2 8.4 0 16-1.8 22.6-5.6 28.1-16.2 34.4-66.7 19.9-130.1 62-19.1 102.5-49.9 102.5-82.3zm-130.2-66.7c-3.7 12.9-8.3 26.2-13.5 39.5-4.1-8-8.4-16-13.1-24-4.6-8-9.5-15.8-14.4-23.4 14.2 2.1 27.9 4.7 41 7.9zm-45.8 106.5c-7.8 13.5-15.8 26.3-24.1 38.2-14.9 1.3-30 2-45.2 2-15.1 0-30.2-.7-45-1.9-8.3-11.9-16.4-24.6-24.2-38-7.6-13.1-14.5-26.4-20.8-39.8 6.2-13.4 13.2-26.8 20.7-39.9 7.8-13.5 15.8-26.3 24.1-38.2 14.9-1.3 30-2 45.2-2 15.1 0 30.2.7 45 1.9 8.3 11.9 16.4 24.6 24.2 38 7.6 13.1 14.5 26.4 20.8 39.8-6.3 13.4-13.2 26.8-20.7 39.9zm32.3-13c5.4 13.4 10 26.8 13.8 39.8-13.1 3.2-26.9 5.9-41.2 8 4.9-7.7 9.8-15.6 14.4-23.7 4.6-8 8.9-16.1 13-24.1zM421.2 430c-9.3-9.6-18.6-20.3-27.8-32 9 .4 18.2.7 27.5.7 9.4 0 18.7-.2 27.8-.7-9 11.7-18.3 22.4-27.5 32zm-74.4-58.9c-14.2-2.1-27.9-4.7-41-7.9 3.7-12.9 8.3-26.2 13.5-39.5 4.1 8 8.4 16 13.1 24 4.7 8 9.5 15.8 14.4 23.4zM420.7 163c9.3 9.6 18.6 20.3 27.8 32-9-.4-18.2-.7-27.5-.7-9.4 0-18.7.2-27.8.7 9-11.7 18.3-22.4 27.5-32zm-74 58.9c-4.9 7.7-9.8 15.6-14.4 23.7-4.6 8-8.9 16-13 24-5.4-13.4-10-26.8-13.8-39.8 13.1-3.1 26.9-5.8 41.2-7.9zm-90.5 125.2c-35.4-15.1-58.3-34.9-58.3-50.6 0-15.7 22.9-35.6 58.3-50.6 8.6-3.7 18-7 27.7-10.1 5.7 19.6 13.2 40 22.5 60.9-9.2 20.8-16.6 41.1-22.2 60.6-9.9-3.1-19.3-6.5-28-10.2zM310 490c-13.6-7.8-19.5-37.5-14.9-75.7 1.1-9.4 2.9-19.3 5.1-29.4 19.6 4.8 41 8.5 63.5 10.9 13.5 18.5 27.5 35.3 41.6 50-32.6 30.3-63.2 46.9-84 46.9-4.5-.1-8.3-1-11.3-2.7zm237.2-76.2c4.7 38.2-1.1 67.9-14.6 75.8-3 1.8-6.9 2.6-11.5 2.6-20.7 0-51.4-16.5-84-46.6 14-14.7 28-31.4 41.3-49.9 22.6-2.4 44-6.1 63.6-11 2.3 10.1 4.1 19.8 5.2 29.1zm38.5-66.7c-8.6 3.7-18 7-27.7 10.1-5.7-19.6-13.2-40-22.5-60.9 9.2-20.8 16.6-41.1 22.2-60.6 9.9 3.1 19.3 6.5 28.1 10.2 35.4 15.1 58.3 34.9 58.3 50.6-.1 15.7-23 35.6-58.4 50.6zM320.8 78.4z"/><circle cx="420.9" cy="296.5" r="45.7"/><path d="M520.5 78.1z"/></g></svg> -->

<?xml version="1.0" encoding="iso-8859-1"?>
<!-- Generator: Adobe Illustrator 19.0.0, SVG Export Plug-In . SVG Version: 6.00 Build 0)  -->
<svg version="1.1" id="Layer_1" xmlns="http://www.w3.org/2000/svg" xmlns:xlink="http://www.w3.org/1999/xlink" x="0px" y="0px"
	 viewBox="0 0 512 512" style="enableBackground:new 0 0 512 512;" xml:space="preserve">
<path style="fill:#E7ECED;" d="M256,69.385c11.803,0,21.46,9.657,21.46,21.46s-9.657,21.46-21.46,21.46
	c-11.803,0-21.46-9.657-21.46-21.46S244.197,69.385,256,69.385z"/>
<rect x="218.443" y="326.902" style="fill:#AFB6BB;" width="75.11" height="37.555"/>
<rect x="218.443" y="364.457" style="fill:#7C8287;" width="75.11" height="69.745"/>
<polygon style="fill:#E7ECED;" points="186.255,219.606 186.255,187.416 325.745,187.416 325.745,219.606 341.841,219.606 
	341.841,262.526 170.16,262.526 170.16,219.606 "/>
<polygon style="fill:#C7CAC7;" points="325.745,402.017 325.745,434.207 293.555,434.207 293.555,364.462 293.555,326.906 
	218.445,326.906 218.445,364.462 218.445,434.207 186.255,434.207 186.255,402.017 170.16,402.017 170.16,262.526 341.841,262.526 
	341.841,402.017 "/>
<polygon style="fill:#8A9095;" points="443.776,434.207 443.776,466.397 68.224,466.397 68.224,434.207 78.954,434.207 
	186.255,434.207 218.445,434.207 293.555,434.207 325.745,434.207 433.046,434.207 "/>
<path style="fill:#AFB6BB;" d="M470.601,477.127v26.825H41.399v-26.825c0-5.902,4.829-10.73,10.73-10.73h16.095h375.552h16.095
	C465.773,466.397,470.601,471.226,470.601,477.127z"/>
<g>
	<rect x="325.743" y="402.013" style="fill:#E7ECED;" width="107.301" height="32.19"/>
	<polygon style="fill:#E7ECED;" points="186.255,402.017 186.255,434.207 78.954,434.207 78.954,402.017 95.049,402.017 
		170.16,402.017 	"/>
	<polygon style="fill:#E7ECED;" points="341.841,219.606 325.745,219.606 325.745,187.416 433.046,187.416 433.046,219.606 
		416.951,219.606 	"/>
	<polygon style="fill:#E7ECED;" points="78.954,187.416 186.255,187.416 186.255,219.606 170.16,219.606 95.049,219.606 
		78.954,219.606 	"/>
</g>
<g>
	<polygon style="fill:#A4A9AB;" points="416.951,219.606 416.951,402.017 341.841,402.017 341.841,262.526 341.841,219.606 	"/>
	<polygon style="fill:#A4A9AB;" points="170.16,219.606 170.16,262.526 170.16,402.017 95.049,402.017 95.049,219.606 	"/>
	<path style="fill:#A4A9AB;" d="M470.601,160.59v26.825h-37.555H325.745H186.255H78.954H41.399V160.59
		c0-5.902,4.829-10.73,10.73-10.73h32.19h343.362h32.19C465.773,149.86,470.601,154.689,470.601,160.59z"/>
</g>
<path style="fill:#E7ECED;" d="M427.681,149.86H84.319L256,10.37L427.681,149.86z M277.46,90.845c0-11.803-9.657-21.46-21.46-21.46
	c-11.803,0-21.46,9.657-21.46,21.46s9.657,21.46,21.46,21.46C267.803,112.305,277.46,102.648,277.46,90.845z"/>
<path d="M256,61.337c-16.271,0-29.508,13.237-29.508,29.508s13.237,29.508,29.508,29.508c16.271,0,29.508-13.237,29.508-29.508
	S272.27,61.337,256,61.337z M256,104.258c-7.396,0-13.413-6.016-13.413-13.413S248.604,77.432,256,77.432
	c7.396,0,13.413,6.016,13.413,13.413S263.395,104.258,256,104.258z"/>
<path d="M441.094,227.653v-32.19h37.555V160.59c0-10.353-8.424-18.778-18.778-18.778h-29.333L256,0L81.462,141.813H52.129
	c-10.353,0-18.778,8.424-18.778,18.778v34.873h37.555v32.19h16.095v166.316H70.906v32.19h-10.73v32.19h-8.048
	c-10.353,0-18.778,8.424-18.778,18.778V512h445.298v-34.873c0-10.353-8.424-18.778-18.778-18.778h-8.048v-32.19h-10.73v-32.19
	h-16.095V227.653H441.094z M424.999,211.558h-91.206v-16.095h91.206V211.558z M387.443,369.827V227.653h21.46v166.316h-59.015
	V227.653h21.46v142.173H387.443z M333.793,393.969h-16.095v32.19h-16.095V318.859h-91.206V426.16h-16.095v-32.19h-16.095V270.574
	h155.586V393.969z M285.508,356.414h-59.015v-21.46h59.015V356.414z M226.492,372.509h59.015v53.65h-59.015V372.509z
	 M333.793,254.478H178.207v-26.825h16.095v-32.19h123.396v32.19h16.095V254.478z M256,20.738l149.015,121.074h-298.03L256,20.738z
	 M49.446,179.368V160.59c0-1.454,1.229-2.683,2.683-2.683h407.742c1.454,0,2.683,1.229,2.683,2.683v18.778H49.446z M87.002,195.463
	h91.206v16.095H87.002V195.463z M140.652,369.827V227.653h21.46v166.316h-59.015V227.653h21.46v142.173H140.652z M87.002,410.064
	h91.206v16.095H87.002V410.064z M459.871,474.445c1.454,0,2.683,1.229,2.683,2.683v18.778H49.446v-18.778
	c0-1.454,1.229-2.683,2.683-2.683H459.871z M435.729,442.255v16.095H76.271v-16.095H435.729z M424.999,426.16h-91.206v-16.095
	h91.206V426.16z"/>
<rect x="239.903" y="216.919" width="32.19" height="16.095"/>
<g>
</g>
<g>
</g>
<g>
</g>
<g>
</g>
<g>
</g>
<g>
</g>
<g>
</g>
<g>
</g>
<g>
</g>
<g>
</g>
<g>
</g>
<g>
</g>
<g>
</g>
<g>
</g>
<g>
</g>
</svg>